<!-- icon666.com - MILLIONS vector ICONS FREE --><svg viewBox="0 0 512 512" xmlns="http://www.w3.org/2000/svg"><path d="m256 512c-68.378906 0-132.667969-26.628906-181.019531-74.980469-48.351563-48.351562-74.980469-112.640625-74.980469-181.019531s26.628906-132.667969 74.980469-181.019531c48.351562-48.351563 112.640625-74.980469 181.019531-74.980469s132.667969 26.628906 181.019531 74.980469c48.351563 48.351562 74.980469 112.640625 74.980469 181.019531s-26.628906 132.667969-74.980469 181.019531c-48.351562 48.351563-112.640625 74.980469-181.019531 74.980469zm0-492c-63.039062 0-122.304688 24.546875-166.878906 69.121094-44.574219 44.574218-69.121094 103.839844-69.121094 166.878906s24.546875 122.304688 69.121094 166.878906c44.574218 44.574219 103.839844 69.121094 166.878906 69.121094s122.304688-24.546875 166.878906-69.121094c44.574219-44.574218 69.121094-103.839844 69.121094-166.878906s-24.546875-122.304688-69.121094-166.878906c-44.574218-44.574219-103.839844-69.121094-166.878906-69.121094zm0 0" fill="#38858a" style="fill: #38858a"></path><path d="m256 462.0625c-113.589844 0-206-92.414062-206-206 0-47.589844 16.613281-94.011719 46.777344-130.714844 29.75-36.203125 71.253906-61.390625 116.863281-70.925781 5.40625-1.128906 10.703125 2.335937 11.835937 7.742187 1.128907 5.40625-2.335937 10.707032-7.742187 11.835938-41.167969 8.605469-78.636719 31.351562-105.503906 64.046875-27.234375 33.132813-42.230469 75.042969-42.230469 118.015625 0 102.558594 83.4375 186 186 186s186-83.441406 186-186c0-42.917969-14.964844-84.785156-42.132812-117.898438-26.804688-32.667968-64.195313-55.433593-105.289063-64.097656-5.402344-1.140625-8.859375-6.445312-7.722656-11.847656 1.140625-5.40625 6.441406-8.863281 11.847656-7.722656 45.527344 9.601562 86.945313 34.808594 116.628906 70.980468 30.09375 36.679688 46.667969 83.054688 46.667969 130.585938 0 113.585938-92.410156 206-206 206zm0 0" fill='#38858a' style="fill: #38858a;"></path><path d="m256.019531 69.9375c-5.523437 0-10.003906-4.476562-10.003906-10s4.472656-10 9.996094-10h.007812c5.523438 0 10 4.476562 10 10s-4.476562 10-10 10zm0 0" fill="#38858a" style="fill: #38858a;"></path><path d="m216 341h-20c-11.027344 0-20-8.972656-20-20v-130c0-11.027344 8.972656-20 20-20h20c11.027344 0 20 8.972656 20 20v130c0 11.027344-8.972656 20-20 20zm-20-150v130h20 .011719l-.011719-130zm0 0" fill="#000000" style="fill: #38858a;"></path><path d="m317 341h-20c-11.027344 0-20-8.972656-20-20v-130c0-11.027344 8.972656-20 20-20h20c11.027344 0 20 8.972656 20 20v130c0 11.027344-8.972656 20-20 20zm-20-150v130h20 .011719l-.011719-130zm0 0" fill="#000000" style="fill: #38858a;"></path></svg>