<!-- icon666.com - MILLIONS vector ICONS FREE --><svg id="Layer_1" enable-background="new 0 0 450 450" viewBox="0 0 450 450" xmlns="http://www.w3.org/2000/svg"><g><g><path d="m225.3 446.7c-107.9 0-195.6-87.7-195.6-195.6 0-42.8 13.5-83.4 39.2-117.5 24.8-33 60.1-57.7 99.3-69.7 2.6-.8 5.4.7 6.2 3.3s-.7 5.4-3.3 6.2c-78.6 24-131.4 95.3-131.4 177.5 0 102.3 83.3 185.6 185.6 185.6s185.6-83.3 185.6-185.6-83.3-185.3-185.6-185.3c-2.8 0-5-2.2-5-5s2.2-5 5-5c107.9 0 195.6 87.7 195.6 195.6s-87.8 195.5-195.6 195.5z" fill="#000000" style="fill: rgb(252, 252, 252);"></path></g><g><path d="m225.3 401.1c-82.7 0-150-67.3-150-150 0-26.2 6.8-51.9 19.8-74.5 12.5-21.9 30.5-40.4 52.1-53.6 2.4-1.4 5.4-.7 6.9 1.7 1.4 2.4.7 5.4-1.7 6.9-42 25.7-67 70.4-67 119.5 0 77.2 62.8 140 140 140s140-62.8 140-140-62.8-140-140-140c-.4 0-.8 0-1.3 0h-.6s0 0-.1 0c-2.7 0-5-2.2-5-4.9 0-2.8 2.2-5 4.9-5.1h.6 1.4c82.7 0 150 67.3 150 150 0 82.8-67.3 150-150 150z" fill="#000000" style="fill: rgb(252, 252, 252);"></path></g><g><path d="m140.1 171c-1.3 0-2.6-.5-3.5-1.5l-17.4-17.4c-2-2-2-5.1 0-7.1s5.1-2 7.1 0l17.4 17.4c2 2 2 5.1 0 7.1-1 1-2.3 1.5-3.6 1.5z" fill="#000000" style="fill: rgb(252, 252, 252);"></path></g><g><path d="m121 195.9c-.8 0-1.7-.2-2.5-.7l-21.3-12.2c-2.4-1.4-3.2-4.4-1.8-6.8s4.4-3.2 6.8-1.8l21.3 12.3c2.4 1.4 3.2 4.4 1.8 6.8-.9 1.5-2.6 2.4-4.3 2.4z" fill="#000000" style="fill: rgb(252, 252, 252);"></path></g><g><path d="m108.9 225c-.4 0-.9-.1-1.3-.2l-23.7-6.4c-2.7-.7-4.3-3.5-3.5-6.1s3.5-4.3 6.1-3.5l23.7 6.4c2.7.7 4.3 3.5 3.5 6.1-.5 2.2-2.6 3.7-4.8 3.7z" fill="#000000" style="fill: rgb(252, 252, 252);"></path></g><g><path d="m104.8 256.1h-24.5c-2.8 0-5-2.2-5-5s2.2-5 5-5h24.6c2.8 0 5 2.2 5 5s-2.3 5-5.1 5z" fill="#000000" style="fill: rgb(252, 252, 252);"></path></g><g><path d="m85.2 293.7c-2.2 0-4.2-1.5-4.8-3.7-.7-2.7.9-5.4 3.5-6.1l23.7-6.4c2.7-.7 5.4.9 6.1 3.5.7 2.7-.9 5.4-3.5 6.1l-23.7 6.4c-.4.1-.9.2-1.3.2z" fill="#000000" style="fill: rgb(252, 252, 252);"></path></g><g><path d="m99.7 328.6c-1.7 0-3.4-.9-4.3-2.5-1.4-2.4-.6-5.4 1.8-6.8l21.3-12.3c2.4-1.4 5.4-.6 6.8 1.8s.6 5.4-1.8 6.8l-21.3 12.4c-.8.4-1.7.6-2.5.6z" fill="#000000" style="fill: rgb(252, 252, 252);"></path></g><g><path d="m122.7 358.7c-1.3 0-2.6-.5-3.5-1.5-2-2-2-5.1 0-7.1l17.4-17.4c2-2 5.1-2 7.1 0s2 5.1 0 7.1l-17.4 17.4c-1 1-2.3 1.5-3.6 1.5z" fill="#000000" style="fill: rgb(252, 252, 252);"></path></g><g><path d="m152.8 381.7c-.8 0-1.7-.2-2.5-.7-2.4-1.4-3.2-4.4-1.8-6.8l12.3-21.3c1.4-2.4 4.4-3.2 6.8-1.8s3.2 4.4 1.8 6.8l-12.3 21.3c-.9 1.6-2.6 2.5-4.3 2.5z" fill="#000000" style="fill: rgb(252, 252, 252);"></path></g><g><path d="m187.7 396.2c-.4 0-.9-.1-1.3-.2-2.7-.7-4.3-3.5-3.5-6.1l6.4-23.7c.7-2.7 3.5-4.2 6.1-3.5 2.7.7 4.3 3.5 3.5 6.1l-6.4 23.7c-.5 2.2-2.6 3.7-4.8 3.7z" fill="#000000" style="fill: rgb(252, 252, 252);"></path></g><g><path d="m225.3 401.1c-2.8 0-5-2.2-5-5v-24.6c0-2.8 2.2-5 5-5s5 2.2 5 5v24.6c0 2.8-2.3 5-5 5z" fill="#000000" style="fill: rgb(252, 252, 252);"></path></g><g><path d="m262.8 396.2c-2.2 0-4.2-1.5-4.8-3.7l-6.4-23.7c-.7-2.7.9-5.4 3.5-6.1 2.7-.7 5.4.9 6.1 3.5l6.4 23.7c.7 2.7-.9 5.4-3.5 6.1-.5.1-.9.2-1.3.2z" fill="#000000" style="fill: rgb(252, 252, 252);"></path></g><g><path d="m297.8 381.7c-1.7 0-3.4-.9-4.3-2.5l-12.3-21.3c-1.4-2.4-.6-5.4 1.8-6.8s5.5-.6 6.8 1.8l12.3 21.3c1.4 2.4.6 5.4-1.8 6.8-.8.5-1.7.7-2.5.7z" fill="#000000" style="fill: rgb(252, 252, 252);"></path></g><g><path d="m327.8 358.7c-1.3 0-2.6-.5-3.5-1.5l-17.4-17.4c-2-2-2-5.1 0-7.1s5.1-2 7.1 0l17.4 17.4c2 2 2 5.1 0 7.1-1.1 1-2.3 1.5-3.6 1.5z" fill="#000000" style="fill: rgb(252, 252, 252);"></path></g><g><path d="m350.8 328.6c-.8 0-1.7-.2-2.5-.7l-21.3-12.3c-2.4-1.4-3.2-4.4-1.8-6.8s4.4-3.2 6.8-1.8l21.3 12.3c2.4 1.4 3.2 4.4 1.8 6.8-.9 1.6-2.5 2.5-4.3 2.5z" fill="#000000" style="fill: rgb(252, 252, 252);"></path></g><g><path d="m365.3 293.7c-.4 0-.9-.1-1.3-.2l-23.7-6.4c-2.7-.7-4.3-3.5-3.5-6.1.7-2.7 3.5-4.2 6.1-3.5l23.7 6.4c2.7.7 4.3 3.5 3.5 6.1-.6 2.2-2.6 3.7-4.8 3.7z" fill="#000000" style="fill: rgb(252, 252, 252);"></path></g><g><path d="m370.3 256.1h-24.6c-2.8 0-5-2.2-5-5s2.2-5 5-5h24.6c2.8 0 5 2.2 5 5s-2.3 5-5 5z" fill="#000000" style="fill: rgb(252, 252, 252);"></path></g><g><path d="m341.6 225c-2.2 0-4.2-1.5-4.8-3.7-.7-2.7.9-5.4 3.5-6.1l23.7-6.4c2.7-.7 5.4.9 6.1 3.5.7 2.7-.9 5.4-3.5 6.1l-23.7 6.4c-.4.1-.9.2-1.3.2z" fill="#000000" style="fill: rgb(252, 252, 252);"></path></g><g><path d="m310.4 171c-1.3 0-2.6-.5-3.5-1.5-2-2-2-5.1 0-7.1l17.4-17.4c2-2 5.1-2 7.1 0s2 5.1 0 7.1l-17.4 17.4c-1 1-2.3 1.5-3.6 1.5z" fill="#000000" style="fill: rgb(252, 252, 252);"></path></g><g><path d="m285.5 151.8c-.8 0-1.7-.2-2.5-.7-2.4-1.4-3.2-4.4-1.8-6.8l12.3-21.3c1.4-2.4 4.4-3.2 6.8-1.8s3.2 4.4 1.8 6.8l-12.3 21.3c-.9 1.6-2.6 2.5-4.3 2.5z" fill="#000000" style="fill: rgb(252, 252, 252);"></path></g><g><path d="m256.4 139.8c-.4 0-.9-.1-1.3-.2-2.7-.7-4.3-3.5-3.5-6.1l6.4-23.7c.7-2.7 3.5-4.3 6.1-3.5 2.7.7 4.3 3.5 3.5 6.1l-6.4 23.7c-.5 2.2-2.6 3.7-4.8 3.7z" fill="#000000" style="fill: rgb(252, 252, 252);"></path></g><g><path d="m225.3 276c-13.7 0-24.9-11.2-24.9-24.9s11.2-24.9 24.9-24.9 24.9 11.2 24.9 24.9-11.2 24.9-24.9 24.9zm0-39.7c-8.2 0-14.9 6.7-14.9 14.9s6.7 14.9 14.9 14.9 14.9-6.7 14.9-14.9-6.7-14.9-14.9-14.9z" fill="#000000" style="fill: rgb(252, 252, 252);"></path></g><g><path d="m225.3 236.3c-2.8 0-5-2.2-5-5v-125.1c0-2.8 2.2-5 5-5s5 2.2 5 5v125.1c0 2.7-2.3 5-5 5z" fill="#000000" style="fill: rgb(252, 252, 252);"></path></g><g><path d="m242.5 246.2c-1.7 0-3.4-.9-4.3-2.5-1.4-2.4-.6-5.4 1.8-6.8l108.4-62.6c2.4-1.4 5.5-.6 6.8 1.8 1.4 2.4.6 5.4-1.8 6.8l-108.4 62.6c-.8.5-1.7.7-2.5.7z" fill="#000000" style="fill: rgb(252, 252, 252);"></path></g><g><path d="m172.4 142.9c-7.5 0-15.1-1.4-22.4-4.2-1.3-.5-2.3-1.5-2.8-2.8-8.9-22.8-3.4-48.7 13.9-66.1 17.3-17.3 43.2-22.8 66.1-13.9 1.3.5 2.3 1.5 2.8 2.8 8.9 22.8 3.4 48.7-13.9 66.1-11.8 11.8-27.6 18.1-43.7 18.1zm-16.7-12.8c18.6 6.3 39.3 1.6 53.3-12.4s18.7-34.7 12.4-53.3c-18.6-6.3-39.3-1.6-53.3 12.4s-18.7 34.7-12.4 53.3z" fill="#000000" style="fill: rgb(252, 252, 252);"></path></g><g><path d="m292.5 77.8c-.8 0-1.7-.2-2.5-.6-2.4-1.4-3.3-4.4-1.9-6.8 7.3-12.9 8.7-28.1 3.9-42.1-18.6-6.3-39.3-1.6-53.3 12.4-5.8 5.8-10 12.6-12.5 20.3-.9 2.6-3.7 4-6.3 3.2-2.6-.9-4-3.7-3.2-6.3 3-9.2 8.1-17.3 14.9-24.2 17.3-17.3 43.2-22.8 66.1-13.9 1.3.5 2.3 1.5 2.8 2.8 6.8 17.4 5.4 36.6-3.8 52.8-.7 1.5-2.4 2.4-4.2 2.4z" fill="#000000" style="fill: rgb(252, 252, 252);"></path></g><g><path d="m221.6 64.3c-2.6 0-4.8-2.1-5-4.7-2.1-36.3-21.9-44.4-38-44.8-2.8-.1-4.9-2.4-4.9-5.1.1-2.8 2.4-4.9 5.1-4.9 16.7.4 45.1 8 47.8 54.2.2 2.8-1.9 5.1-4.7 5.3-.1 0-.2 0-.3 0z" fill="#000000" style="fill: rgb(252, 252, 252);"></path></g></g></svg>